{
  "asset": {
    "version": "2.0",
    "generator": "THREE.GLTFExporter"
  },
  "scenes": [
    {
      "nodes": [
        11
      ],
      "name": "AuxScene"
    }
  ],
  "scene": 0,
  "nodes": [
    {
      "matrix": [
        0.9924316258360396,
        8.673617379884035e-19,
        -0.12279848549731821,
        0,
        -0.010900295749493878,
        0.9960525323928662,
        -0.08809390595456595,
        0,
        0.12231374245361244,
        0.08876571812224776,
        0.9885140341407567,
        0,
        52.262658438507565,
        111.4467753511567,
        382.46275601383104,
        1
      ],
      "name": "CINEMA_4D_Editor",
      "camera": 0
    },
    {
      "matrix": [
        1,
        0,
        0,
        0,
        0,
        1,
        0,
        0,
        0,
        0,
        1,
        0,
        -158,
        56,
        0,
        1
      ],
      "name": "Sphere",
      "mesh": 0
    },
    {
      "name": "Null",
      "children": [
        1
      ]
    },
    {
      "matrix": [
        1,
        0,
        0,
        0,
        0,
        1,
        0,
        0,
        0,
        0,
        1,
        0,
        -3.438396075804153,
        15.95006047144885,
        171.575926350277,
        1
      ],
      "name": "MoText_2",
      "mesh": 1
    },
    {
      "matrix": [
        -12.801790854505121,
        -0.000006586814793969147,
        40.35737115038671,
        0,
        -3.557068441899367e-9,
        42.33914566039984,
        0.00000690913620499823,
        0,
        -40.35737115038726,
        0.0000020856765381770917,
        -12.801790854504954,
        0,
        136.0445325817652,
        -4.035095946297636,
        -18.05940999527587,
        1
      ],
      "name": "Cylinder_014",
      "mesh": 2
    },
    {
      "matrix": [
        -174.36436098658402,
        2.6699446232597785e-14,
        -81.30743683734632,
        0,
        -81.30743683734636,
        -4.2719113972156474e-14,
        174.36436098658413,
        0,
        5.3398892465195585e-15,
        192.38978576660162,
        4.271911397215647e-14,
        0,
        -124.46911808778471,
        -4.6446798178450335,
        36.62260652485185,
        1
      ],
      "name": "Sphere_2",
      "mesh": 3
    },
    {
      "matrix": [
        -59.643318075553985,
        1.0959420067828017e-14,
        -27.812135976405116,
        0,
        -27.812135976405106,
        -2.92251201808747e-14,
        59.64331807555397,
        0,
        0,
        65.80912017822264,
        1.461256009043735e-14,
        0,
        -57.706827701430896,
        -4.054277199436828,
        13.279713494929865,
        1
      ],
      "name": "Icosphere_001",
      "mesh": 4
    },
    {
      "matrix": [
        105.12110324561117,
        1.4486949657161638e-14,
        49.018775477130674,
        0,
        -24.69488991030198,
        -89.59926406345926,
        52.95836231386439,
        0,
        -79.51759096453473,
        122.7070025553554,
        170.52602412569337,
        0,
        -89.91311937431477,
        16.76914890987713,
        -13.783500029229913,
        1
      ],
      "name": "Sphere_001",
      "mesh": 5
    },
    {
      "matrix": [
        -12.801790854505121,
        -0.000006586814793969147,
        40.35737115038671,
        0,
        -3.557068441899367e-9,
        42.33914566039984,
        0.00000690913620499823,
        0,
        -40.35737115038726,
        0.0000020856765381770917,
        -12.801790854504954,
        0,
        136.0445325817652,
        -4.035095946297636,
        -18.05940999527587,
        1
      ],
      "name": "Icosphere_Icosphere_002",
      "mesh": 6
    },
    {
      "matrix": [
        -12.801790854505121,
        -0.000006586814793969147,
        40.35737115038671,
        0,
        -3.557068441899367e-9,
        42.33914566039984,
        0.00000690913620499823,
        0,
        -40.35737115038726,
        0.0000020856765381770917,
        -12.801790854504954,
        0,
        136.0445325817652,
        -4.035095946297636,
        -18.05940999527587,
        1
      ],
      "name": "Icosphere_001_Icosphere_003",
      "mesh": 7
    },
    {
      "matrix": [
        1,
        0,
        0,
        0,
        0,
        1,
        0,
        0,
        0,
        0,
        1,
        0,
        -5.455707029359065,
        4.034827951573148,
        -178.7804188461744,
        1
      ],
      "name": "Null_1",
      "children": [
        3,
        4,
        5,
        6,
        7,
        8,
        9
      ]
    },
    {
      "children": [
        0,
        2,
        10
      ]
    }
  ],
  "cameras": [
    {
      "type": "perspective",
      "perspective": {
        "aspectRatio": 1.7777777777777777,
        "yfov": 0.30027711103582555,
        "zfar": 10,
        "znear": 0.000001
      },
      "name": "PerspectiveCamera"
    }
  ],
  "bufferViews": [
    {
      "buffer": 0,
      "byteOffset": 0,
      "byteLength": 8064,
      "target": 34962,
      "byteStride": 12
    },
    {
      "buffer": 0,
      "byteOffset": 8064,
      "byteLength": 8064,
      "target": 34962,
      "byteStride": 12
    },
    {
      "buffer": 0,
      "byteOffset": 16128,
      "byteLength": 5376,
      "target": 34962,
      "byteStride": 8
    },
    {
      "buffer": 0,
      "byteOffset": 21504,
      "byteLength": 1344,
      "target": 34963
    },
    {
      "buffer": 0,
      "byteOffset": 22848,
      "byteLength": 19080,
      "target": 34962,
      "byteStride": 12
    },
    {
      "buffer": 0,
      "byteOffset": 41928,
      "byteLength": 19080,
      "target": 34962,
      "byteStride": 12
    },
    {
      "buffer": 0,
      "byteOffset": 61008,
      "byteLength": 12720,
      "target": 34962,
      "byteStride": 8
    },
    {
      "buffer": 0,
      "byteOffset": 73728,
      "byteLength": 3180,
      "target": 34963
    },
    {
      "buffer": 0,
      "byteOffset": 76908,
      "byteLength": 4176,
      "target": 34962,
      "byteStride": 12
    },
    {
      "buffer": 0,
      "byteOffset": 81084,
      "byteLength": 4176,
      "target": 34962,
      "byteStride": 12
    },
    {
      "buffer": 0,
      "byteOffset": 85260,
      "byteLength": 696,
      "target": 34963
    },
    {
      "buffer": 0,
      "byteOffset": 85956,
      "byteLength": 3816,
      "target": 34962,
      "byteStride": 12
    },
    {
      "buffer": 0,
      "byteOffset": 89772,
      "byteLength": 3816,
      "target": 34962,
      "byteStride": 12
    },
    {
      "buffer": 0,
      "byteOffset": 93588,
      "byteLength": 636,
      "target": 34963
    },
    {
      "buffer": 0,
      "byteOffset": 94224,
      "byteLength": 792,
      "target": 34962,
      "byteStride": 12
    },
    {
      "buffer": 0,
      "byteOffset": 95016,
      "byteLength": 792,
      "target": 34962,
      "byteStride": 12
    },
    {
      "buffer": 0,
      "byteOffset": 95808,
      "byteLength": 132,
      "target": 34963
    },
    {
      "buffer": 0,
      "byteOffset": 95940,
      "byteLength": 1728,
      "target": 34962,
      "byteStride": 12
    },
    {
      "buffer": 0,
      "byteOffset": 97668,
      "byteLength": 1728,
      "target": 34962,
      "byteStride": 12
    },
    {
      "buffer": 0,
      "byteOffset": 99396,
      "byteLength": 288,
      "target": 34963
    },
    {
      "buffer": 0,
      "byteOffset": 99684,
      "byteLength": 5184,
      "target": 34962,
      "byteStride": 12
    },
    {
      "buffer": 0,
      "byteOffset": 104868,
      "byteLength": 5184,
      "target": 34962,
      "byteStride": 12
    },
    {
      "buffer": 0,
      "byteOffset": 110052,
      "byteLength": 864,
      "target": 34963
    },
    {
      "buffer": 0,
      "byteOffset": 110916,
      "byteLength": 3528,
      "target": 34962,
      "byteStride": 12
    },
    {
      "buffer": 0,
      "byteOffset": 114444,
      "byteLength": 3528,
      "target": 34962,
      "byteStride": 12
    },
    {
      "buffer": 0,
      "byteOffset": 117972,
      "byteLength": 588,
      "target": 34963
    }
  ],
  "buffers": [
    {
      "byteLength": 118560,
      "uri": "data:application/octet-stream;base64,"
    }
  ],
  "accessors": [
    {
      "bufferView": 0,
      "componentType": 5126,
      "count": 672,
      "max": [
        6.099999904632568,
        6.099999904632568,
        6.099999904632568
      ],
      "min": [
        -6.099999904632568,
        -6.099999904632568,
        -6.099999904632568
      ],
      "type": "VEC3"
    },
    {
      "bufferView": 1,
      "componentType": 5126,
      "count": 672,
      "max": [
        0.9999999403953552,
        1,
        0.9999999403953552
      ],
      "min": [
        -0.9999999403953552,
        -1,
        -0.9999999403953552
      ],
      "type": "VEC3"
    },
    {
      "bufferView": 2,
      "componentType": 5126,
      "count": 672,
      "max": [
        1,
        1
      ],
      "min": [
        0,
        0
      ],
      "type": "VEC2"
    },
    {
      "bufferView": 3,
      "componentType": 5123,
      "count": 672,
      "max": [
        671
      ],
      "min": [
        0
      ],
      "type": "SCALAR"
    },
    {
      "bufferView": 4,
      "componentType": 5126,
      "count": 1590,
      "max": [
        58.89410400390625,
        51.47029495239258,
        57.10582733154297
      ],
      "min": [
        -40.711631774902344,
        -19.29220199584961,
        -42.696842193603516
      ],
      "type": "VEC3"
    },
    {
      "bufferView": 5,
      "componentType": 5126,
      "count": 1590,
      "max": [
        1,
        1,
        1
      ],
      "min": [
        -1,
        -1,
        -1
      ],
      "type": "VEC3"
    },
    {
      "bufferView": 6,
      "componentType": 5126,
      "count": 1590,
      "max": [
        1,
        1
      ],
      "min": [
        0,
        0
      ],
      "type": "VEC2"
    },
    {
      "bufferView": 7,
      "componentType": 5123,
      "count": 1590,
      "max": [
        1589
      ],
      "min": [
        0
      ],
      "type": "SCALAR"
    },
    {
      "bufferView": 8,
      "componentType": 5126,
      "count": 348,
      "max": [
        0.15321096777915955,
        4.103829860687256,
        1.7706986665725708
      ],
      "min": [
        -0.3773687183856964,
        -0.5491654872894287,
        0.26768362522125244
      ],
      "type": "VEC3"
    },
    {
      "bufferView": 9,
      "componentType": 5126,
      "count": 348,
      "max": [
        0.9997660517692566,
        0.9752888679504395,
        0.9112075567245483
      ],
      "min": [
        -0.9997660517692566,
        -1,
        -0.9194793701171875
      ],
      "type": "VEC3"
    },
    {
      "bufferView": 10,
      "componentType": 5123,
      "count": 348,
      "max": [
        347
      ],
      "min": [
        0
      ],
      "type": "SCALAR"
    },
    {
      "bufferView": 11,
      "componentType": 5126,
      "count": 318,
      "max": [
        0.2304798811674118,
        0.2077118307352066,
        0.17394524812698364
      ],
      "min": [
        -0.2294040471315384,
        -0.22543656826019287,
        -0.13664184510707855
      ],
      "type": "VEC3"
    },
    {
      "bufferView": 12,
      "componentType": 5126,
      "count": 318,
      "max": [
        0.961576521396637,
        0.9930866956710815,
        0.9944165945053101
      ],
      "min": [
        -0.9986907243728638,
        -0.9713043570518494,
        -0.9972436428070068
      ],
      "type": "VEC3"
    },
    {
      "bufferView": 13,
      "componentType": 5123,
      "count": 318,
      "max": [
        317
      ],
      "min": [
        0
      ],
      "type": "SCALAR"
    },
    {
      "bufferView": 14,
      "componentType": 5126,
      "count": 66,
      "max": [
        0.22274036705493927,
        0.22887951135635376,
        0.24240046739578247
      ],
      "min": [
        -0.221170574426651,
        -0.22566458582878113,
        -0.1347658336162567
      ],
      "type": "VEC3"
    },
    {
      "bufferView": 15,
      "componentType": 5126,
      "count": 66,
      "max": [
        0.9349884390830994,
        0.9384030103683472,
        0.9552063345909119
      ],
      "min": [
        -0.9686816930770874,
        -0.9133698344230652,
        -0.8970475792884827
      ],
      "type": "VEC3"
    },
    {
      "bufferView": 16,
      "componentType": 5123,
      "count": 66,
      "max": [
        65
      ],
      "min": [
        0
      ],
      "type": "SCALAR"
    },
    {
      "bufferView": 17,
      "componentType": 5126,
      "count": 144,
      "max": [
        0.23212864995002747,
        0.21286679804325104,
        0.18156695365905762
      ],
      "min": [
        -0.22965018451213837,
        -0.22543656826019287,
        -0.12687978148460388
      ],
      "type": "VEC3"
    },
    {
      "bufferView": 18,
      "componentType": 5126,
      "count": 144,
      "max": [
        0.9713286757469177,
        0.9867835640907288,
        0.9389805793762207
      ],
      "min": [
        -0.9399175047874451,
        -0.9548441767692566,
        -0.998839259147644
      ],
      "type": "VEC3"
    },
    {
      "bufferView": 19,
      "componentType": 5123,
      "count": 144,
      "max": [
        143
      ],
      "min": [
        0
      ],
      "type": "SCALAR"
    },
    {
      "bufferView": 20,
      "componentType": 5126,
      "count": 432,
      "max": [
        0.8240311741828918,
        5.026082515716553,
        1.4342103004455566
      ],
      "min": [
        -1.293683648109436,
        2.9099559783935547,
        -0.6839441061019897
      ],
      "type": "VEC3"
    },
    {
      "bufferView": 21,
      "componentType": 5126,
      "count": 432,
      "max": [
        0.9895370006561279,
        0.9888767600059509,
        0.9850226640701294
      ],
      "min": [
        -0.9895369410514832,
        -0.9869819283485413,
        -0.9888986945152283
      ],
      "type": "VEC3"
    },
    {
      "bufferView": 22,
      "componentType": 5123,
      "count": 432,
      "max": [
        431
      ],
      "min": [
        0
      ],
      "type": "SCALAR"
    },
    {
      "bufferView": 23,
      "componentType": 5126,
      "count": 294,
      "max": [
        0.3550545275211334,
        3.828432559967041,
        2.363440990447998
      ],
      "min": [
        -0.8247069716453552,
        2.664276599884033,
        1.1834347248077393
      ],
      "type": "VEC3"
    },
    {
      "bufferView": 24,
      "componentType": 5126,
      "count": 294,
      "max": [
        0.9935002326965332,
        0.9947828650474548,
        0.9856008291244507
      ],
      "min": [
        -0.9895370006561279,
        -0.9952377676963806,
        -0.9888988137245178
      ],
      "type": "VEC3"
    },
    {
      "bufferView": 25,
      "componentType": 5123,
      "count": 294,
      "max": [
        293
      ],
      "min": [
        0
      ],
      "type": "SCALAR"
    }
  ],
  "materials": [
    {
      "pbrMetallicRoughness": {
        "baseColorFactor": [
          1,
          0.8160000000000007,
          0.07999999999999996,
          1
        ],
        "metallicFactor": 0.5,
        "roughnessFactor": 0.5
      },
      "name": "Mat.1"
    },
    {
      "pbrMetallicRoughness": {
        "baseColorFactor": [
          0.9949238578680203,
          0.9575510835115567,
          0.8080599860857017,
          1
        ],
        "metallicFactor": 0.5,
        "roughnessFactor": 0.5
      },
      "name": "Mat"
    },
    {
      "pbrMetallicRoughness": {
        "baseColorFactor": [
          0.14308899641036987,
          0.03052400052547455,
          0.0038300000596791506,
          1
        ],
        "metallicFactor": 0.5,
        "roughnessFactor": 0.5
      },
      "name": "Material.103"
    },
    {
      "pbrMetallicRoughness": {
        "baseColorFactor": [
          0.6400000190734865,
          0.6400000190734865,
          0.6400000190734865,
          1
        ],
        "metallicFactor": 0.5,
        "roughnessFactor": 0.5
      },
      "name": "Material.004"
    },
    {
      "pbrMetallicRoughness": {
        "baseColorFactor": [
          0.2376829981803894,
          0.6399999856948853,
          0.010366000235080719,
          1
        ],
        "metallicFactor": 0.5,
        "roughnessFactor": 0.5
      },
      "name": "Material.105"
    }
  ],
  "meshes": [
    {
      "primitives": [
        {
          "mode": 4,
          "attributes": {
            "POSITION": 0,
            "NORMAL": 1,
            "TEXCOORD_0": 2
          },
          "indices": 3,
          "material": 0
        }
      ]
    },
    {
      "primitives": [
        {
          "mode": 4,
          "attributes": {
            "POSITION": 4,
            "NORMAL": 5,
            "TEXCOORD_0": 6
          },
          "indices": 7,
          "material": 1
        }
      ]
    },
    {
      "primitives": [
        {
          "mode": 4,
          "attributes": {
            "POSITION": 8,
            "NORMAL": 9
          },
          "indices": 10,
          "material": 2
        }
      ]
    },
    {
      "primitives": [
        {
          "mode": 4,
          "attributes": {
            "POSITION": 11,
            "NORMAL": 12
          },
          "indices": 13,
          "material": 3
        }
      ]
    },
    {
      "primitives": [
        {
          "mode": 4,
          "attributes": {
            "POSITION": 14,
            "NORMAL": 15
          },
          "indices": 16,
          "material": 3
        }
      ]
    },
    {
      "primitives": [
        {
          "mode": 4,
          "attributes": {
            "POSITION": 17,
            "NORMAL": 18
          },
          "indices": 19,
          "material": 3
        }
      ]
    },
    {
      "primitives": [
        {
          "mode": 4,
          "attributes": {
            "POSITION": 20,
            "NORMAL": 21
          },
          "indices": 22,
          "material": 4
        }
      ]
    },
    {
      "primitives": [
        {
          "mode": 4,
          "attributes": {
            "POSITION": 23,
            "NORMAL": 24
          },
          "indices": 25,
          "material": 4
        }
      ]
    }
  ]
}