{
  "asset": {
    "version": "2.0",
    "generator": "THREE.GLTFExporter"
  },
  "scenes": [
    {
      "nodes": [
        8
      ],
      "name": "AuxScene"
    }
  ],
  "scene": 0,
  "nodes": [
    {
      "matrix": [
        0.9959791490040634,
        0,
        -0.0895853489647816,
        0,
        -0.0009309118872865748,
        0.9999460085611723,
        -0.010349558717039149,
        0,
        0.08958051212289309,
        0.010391340749842264,
        0.995925374656766,
        0,
        102.6261905451941,
        233.94766802524947,
        1000.3601120994339,
        1
      ],
      "name": "CINEMA_4D_Editor",
      "camera": 0
    },
    {
      "matrix": [
        1,
        0,
        0,
        0,
        0,
        1,
        0,
        0,
        0,
        0,
        1,
        0,
        0,
        1.5253847283872801,
        0.75,
        1
      ],
      "name": "Cylinder_3",
      "mesh": 0
    },
    {
      "matrix": [
        1,
        0,
        0,
        0,
        0,
        1,
        0,
        0,
        0,
        0,
        1,
        0,
        0,
        -1.5253847283872801,
        -0.75,
        1
      ],
      "name": "Glass",
      "mesh": 1
    },
    {
      "matrix": [
        1,
        0,
        0,
        0,
        0,
        1,
        0,
        0,
        0,
        0,
        1,
        0,
        0,
        202.97461527161272,
        0.75,
        1
      ],
      "name": "hourglass",
      "children": [
        1,
        2
      ]
    },
    {
      "matrix": [
        1,
        0,
        0,
        0,
        0,
        1,
        0,
        0,
        0,
        0,
        1,
        0,
        366.5116116188853,
        0,
        -456.2337610819434,
        1
      ],
      "name": "palm_tree_01",
      "mesh": 2
    },
    {
      "matrix": [
        1,
        0,
        0,
        0,
        0,
        1,
        0,
        0,
        0,
        0,
        1,
        0,
        398.8802545350353,
        0.10176725677624254,
        -505.81613027589253,
        1
      ],
      "name": "Default",
      "mesh": 3
    },
    {
      "matrix": [
        -0.6374239897486914,
        -7.806192487454701e-17,
        0.7705132427757876,
        0,
        -2.168253375613369e-16,
        1,
        -7.806192487454702e-17,
        0,
        -0.7705132427757876,
        -2.1682533756133686e-16,
        -0.6374239897486914,
        0,
        -405.2221233356695,
        0,
        -452.58942465161357,
        1
      ],
      "name": "Archway1",
      "mesh": 4
    },
    {
      "name": "fix",
      "children": [
        4,
        5,
        6
      ]
    },
    {
      "children": [
        0,
        3,
        7
      ]
    }
  ],
  "cameras": [
    {
      "type": "perspective",
      "perspective": {
        "aspectRatio": 1.7777777777777777,
        "yfov": 0.30027711103582555,
        "zfar": 10,
        "znear": 0.000001
      },
      "name": "PerspectiveCamera"
    }
  ],
  "bufferViews": [
    {
      "buffer": 0,
      "byteOffset": 0,
      "byteLength": 30816,
      "target": 34962,
      "byteStride": 12
    },
    {
      "buffer": 0,
      "byteOffset": 30816,
      "byteLength": 30816,
      "target": 34962,
      "byteStride": 12
    },
    {
      "buffer": 0,
      "byteOffset": 61632,
      "byteLength": 20544,
      "target": 34962,
      "byteStride": 8
    },
    {
      "buffer": 0,
      "byteOffset": 82176,
      "byteLength": 5136,
      "target": 34963
    },
    {
      "buffer": 0,
      "byteOffset": 87312,
      "byteLength": 10800,
      "target": 34962,
      "byteStride": 12
    },
    {
      "buffer": 0,
      "byteOffset": 98112,
      "byteLength": 10800,
      "target": 34962,
      "byteStride": 12
    },
    {
      "buffer": 0,
      "byteOffset": 108912,
      "byteLength": 7200,
      "target": 34962,
      "byteStride": 8
    },
    {
      "buffer": 0,
      "byteOffset": 116112,
      "byteLength": 1800,
      "target": 34963
    },
    {
      "buffer": 0,
      "byteOffset": 117912,
      "byteLength": 36000,
      "target": 34962,
      "byteStride": 12
    },
    {
      "buffer": 0,
      "byteOffset": 153912,
      "byteLength": 36000,
      "target": 34962,
      "byteStride": 12
    },
    {
      "buffer": 0,
      "byteOffset": 189912,
      "byteLength": 24000,
      "target": 34962,
      "byteStride": 8
    },
    {
      "buffer": 0,
      "byteOffset": 213912,
      "byteLength": 864,
      "target": 34963
    },
    {
      "buffer": 0,
      "byteOffset": 214776,
      "byteLength": 4128,
      "target": 34963
    },
    {
      "buffer": 0,
      "byteOffset": 218904,
      "byteLength": 1008,
      "target": 34963
    },
    {
      "buffer": 0,
      "byteOffset": 219912,
      "byteLength": 10152,
      "target": 34962,
      "byteStride": 12
    },
    {
      "buffer": 0,
      "byteOffset": 230064,
      "byteLength": 10152,
      "target": 34962,
      "byteStride": 12
    },
    {
      "buffer": 0,
      "byteOffset": 240216,
      "byteLength": 6768,
      "target": 34962,
      "byteStride": 8
    },
    {
      "buffer": 0,
      "byteOffset": 246984,
      "byteLength": 1692,
      "target": 34963
    },
    {
      "buffer": 0,
      "byteOffset": 248676,
      "byteLength": 72000,
      "target": 34962,
      "byteStride": 12
    },
    {
      "buffer": 0,
      "byteOffset": 320676,
      "byteLength": 72000,
      "target": 34962,
      "byteStride": 12
    },
    {
      "buffer": 0,
      "byteOffset": 392676,
      "byteLength": 48000,
      "target": 34962,
      "byteStride": 8
    },
    {
      "buffer": 0,
      "byteOffset": 440676,
      "byteLength": 12000,
      "target": 34963
    }
  ],
  "buffers": [
    {
      "byteLength": 452676,
      "uri": "data:application/octet-stream;base64,"
    }
  ],
  "accessors": [
    {
      "bufferView": 0,
      "componentType": 5126,
      "count": 2568,
      "max": [
        68.75,
        207,
        67.25
      ],
      "min": [
        -68.75,
        -207,
        -70.25
      ],
      "type": "VEC3"
    },
    {
      "bufferView": 1,
      "componentType": 5126,
      "count": 2568,
      "max": [
        1,
        1,
        1
      ],
      "min": [
        -1,
        -1,
        -1
      ],
      "type": "VEC3"
    },
    {
      "bufferView": 2,
      "componentType": 5126,
      "count": 2568,
      "max": [
        1,
        1
      ],
      "min": [
        0,
        0
      ],
      "type": "VEC2"
    },
    {
      "bufferView": 3,
      "componentType": 5123,
      "count": 2568,
      "max": [
        2567
      ],
      "min": [
        0
      ],
      "type": "SCALAR"
    },
    {
      "bufferView": 4,
      "componentType": 5126,
      "count": 900,
      "max": [
        52.5,
        200,
        52.5
      ],
      "min": [
        -52.5,
        -200,
        -52.5
      ],
      "type": "VEC3"
    },
    {
      "bufferView": 5,
      "componentType": 5126,
      "count": 900,
      "max": [
        0.9914448261260986,
        0.9827321767807007,
        0.9914448261260986
      ],
      "min": [
        -0.9914448261260986,
        -0.9827321767807007,
        -0.9914448261260986
      ],
      "type": "VEC3"
    },
    {
      "bufferView": 6,
      "componentType": 5126,
      "count": 900,
      "max": [
        1,
        1
      ],
      "min": [
        0,
        0
      ],
      "type": "VEC2"
    },
    {
      "bufferView": 7,
      "componentType": 5123,
      "count": 900,
      "max": [
        899
      ],
      "min": [
        0
      ],
      "type": "SCALAR"
    },
    {
      "bufferView": 8,
      "componentType": 5126,
      "count": 3000,
      "max": [
        242.8917694091797,
        582.9149169921875,
        188.4290771484375
      ],
      "min": [
        -223.62405395507812,
        0.06720786541700363,
        -246.45733642578125
      ],
      "type": "VEC3"
    },
    {
      "bufferView": 9,
      "componentType": 5126,
      "count": 3000,
      "max": [
        0.9996874928474426,
        0.9996874928474426,
        0.9997187256813049
      ],
      "min": [
        -0.9997812509536743,
        -0.9999687671661377,
        -0.9971874952316284
      ],
      "type": "VEC3"
    },
    {
      "bufferView": 10,
      "componentType": 5126,
      "count": 3000,
      "max": [
        0.6442000269889832,
        0.7010999917984009
      ],
      "min": [
        0.23149999976158142,
        0.05620002746582031
      ],
      "type": "VEC2"
    },
    {
      "bufferView": 11,
      "componentType": 5123,
      "count": 432,
      "max": [
        431
      ],
      "min": [
        0
      ],
      "type": "SCALAR"
    },
    {
      "bufferView": 12,
      "componentType": 5123,
      "count": 2064,
      "max": [
        2495
      ],
      "min": [
        432
      ],
      "type": "SCALAR"
    },
    {
      "bufferView": 13,
      "componentType": 5123,
      "count": 504,
      "max": [
        2999
      ],
      "min": [
        2496
      ],
      "type": "SCALAR"
    },
    {
      "bufferView": 14,
      "componentType": 5126,
      "count": 846,
      "max": [
        254.95608520507812,
        32.28281021118164,
        274.470703125
      ],
      "min": [
        -254.95608520507812,
        -32.28276062011719,
        -274.470703125
      ],
      "type": "VEC3"
    },
    {
      "bufferView": 15,
      "componentType": 5126,
      "count": 846,
      "max": [
        0.8451250195503235,
        0.9986875057220459,
        0.9623125195503235
      ],
      "min": [
        -0.9923437237739563,
        -0.999875009059906,
        -0.9984375238418579
      ],
      "type": "VEC3"
    },
    {
      "bufferView": 16,
      "componentType": 5126,
      "count": 846,
      "max": [
        0.5024605393409729,
        0.5003982186317444
      ],
      "min": [
        0.4975394308567047,
        0.4996018409729004
      ],
      "type": "VEC2"
    },
    {
      "bufferView": 17,
      "componentType": 5123,
      "count": 846,
      "max": [
        845
      ],
      "min": [
        0
      ],
      "type": "SCALAR"
    },
    {
      "bufferView": 18,
      "componentType": 5126,
      "count": 6000,
      "max": [
        247.98228454589844,
        492.1123352050781,
        43.74282455444336
      ],
      "min": [
        -247.5,
        -18.75,
        -43.74282455444336
      ],
      "type": "VEC3"
    },
    {
      "bufferView": 19,
      "componentType": 5126,
      "count": 6000,
      "max": [
        1,
        1,
        1
      ],
      "min": [
        -1,
        -1,
        -1
      ],
      "type": "VEC3"
    },
    {
      "bufferView": 20,
      "componentType": 5126,
      "count": 6000,
      "max": [
        0.9761080145835876,
        0.995048999786377
      ],
      "min": [
        0.004856000188738108,
        0.004950046539306641
      ],
      "type": "VEC2"
    },
    {
      "bufferView": 21,
      "componentType": 5123,
      "count": 6000,
      "max": [
        5999
      ],
      "min": [
        0
      ],
      "type": "SCALAR"
    }
  ],
  "materials": [
    {
      "pbrMetallicRoughness": {
        "baseColorFactor": [
          0.8,
          0.8,
          0.8,
          1
        ],
        "metallicFactor": 0.5,
        "roughnessFactor": 0.5
      }
    },
    {
      "pbrMetallicRoughness": {
        "baseColorFactor": [
          0.8,
          0.8,
          0.8,
          1
        ],
        "metallicFactor": 0.5,
        "roughnessFactor": 0.5
      }
    },
    {
      "pbrMetallicRoughness": {
        "metallicFactor": 0.5,
        "roughnessFactor": 0.5
      },
      "name": "795548"
    },
    {
      "pbrMetallicRoughness": {
        "metallicFactor": 0.5,
        "roughnessFactor": 0.5
      },
      "name": "8BC34A"
    },
    {
      "pbrMetallicRoughness": {
        "metallicFactor": 0.5,
        "roughnessFactor": 0.5
      },
      "name": "DD9944"
    },
    {
      "pbrMetallicRoughness": {
        "metallicFactor": 0.5,
        "roughnessFactor": 0.5
      },
      "name": "mat18"
    },
    {
      "pbrMetallicRoughness": {
        "metallicFactor": 0.5,
        "roughnessFactor": 0.5
      },
      "name": "lambert3SG"
    }
  ],
  "meshes": [
    {
      "primitives": [
        {
          "mode": 4,
          "attributes": {
            "POSITION": 0,
            "NORMAL": 1,
            "TEXCOORD_0": 2
          },
          "indices": 3,
          "material": 0
        }
      ]
    },
    {
      "primitives": [
        {
          "mode": 4,
          "attributes": {
            "POSITION": 4,
            "NORMAL": 5,
            "TEXCOORD_0": 6
          },
          "indices": 7,
          "material": 1
        }
      ]
    },
    {
      "primitives": [
        {
          "mode": 4,
          "attributes": {
            "POSITION": 8,
            "NORMAL": 9,
            "TEXCOORD_0": 10
          },
          "indices": 11,
          "material": 2
        },
        {
          "mode": 4,
          "attributes": {
            "POSITION": 8,
            "NORMAL": 9,
            "TEXCOORD_0": 10
          },
          "indices": 12,
          "material": 3
        },
        {
          "mode": 4,
          "attributes": {
            "POSITION": 8,
            "NORMAL": 9,
            "TEXCOORD_0": 10
          },
          "indices": 13,
          "material": 4
        }
      ]
    },
    {
      "primitives": [
        {
          "mode": 4,
          "attributes": {
            "POSITION": 14,
            "NORMAL": 15,
            "TEXCOORD_0": 16
          },
          "indices": 17,
          "material": 5
        }
      ]
    },
    {
      "primitives": [
        {
          "mode": 4,
          "attributes": {
            "POSITION": 18,
            "NORMAL": 19,
            "TEXCOORD_0": 20
          },
          "indices": 21,
          "material": 6
        }
      ]
    }
  ]
}